<?xml version="1.0" encoding="UTF-8" standalone="no"?>
<!DOCTYPE svg PUBLIC "-//W3C//DTD SVG 1.1//EN" "http://www.w3.org/Graphics/SVG/1.1/DTD/svg11.dtd">
<svg width="100%" height="100%" viewBox="0 0 955 955" version="1.1" xmlns="http://www.w3.org/2000/svg" xmlns:xlink="http://www.w3.org/1999/xlink" xml:space="preserve" xmlns:serif="http://www.serif.com/" style="fill-rule:evenodd;clip-rule:evenodd;stroke-linecap:round;stroke-linejoin:round;stroke-miterlimit:1.5;">
    <g transform="matrix(1,0,0,1,-1442.5,-524.966)">
        <g id="Full-Pixel-Grid" serif:id="Full Pixel Grid">
            <path d="M1870,1208.88L1870,1152.47C1870,1152.47 1870,1149.85 1869.98,1146.05C1869.98,1129.69 1861.98,1114.37 1848.56,1105.03C1836.45,1096.57 1825.9,1086.02 1817.45,1073.9C1808.11,1060.47 1792.78,1052.47 1776.42,1052.47L1720,1052.47C1720,1052.47 1717.39,1052.47 1713.58,1052.48C1697.23,1052.48 1681.91,1060.48 1672.56,1073.91C1664.1,1086.02 1653.55,1096.57 1641.43,1105.01C1628,1114.36 1620,1129.69 1620,1146.05L1620,1202.47C1620,1202.47 1620,1205.08 1620.02,1208.88C1620.02,1225.24 1628.02,1240.56 1641.44,1249.91C1653.55,1258.36 1664.1,1268.91 1672.55,1281.04C1681.89,1294.46 1697.22,1302.47 1713.58,1302.47L1770,1302.47C1770,1302.47 1772.61,1302.47 1776.42,1302.45C1792.77,1302.45 1808.09,1294.45 1817.44,1281.03C1825.9,1268.91 1836.45,1258.36 1848.57,1249.92C1862,1240.57 1870,1225.25 1870,1208.88ZM2269.19,1127.46C2200.58,1127.03 2145,1071.19 2145,1002.47L2145,1001.66C2145.44,933.041 2201.28,877.466 2270,877.466L2270.81,877.469C2339.43,877.904 2395,933.746 2395,1002.47L2395,1003.27C2394.56,1071.89 2338.72,1127.47 2270,1127.47L2269.19,1127.46ZM1919.19,777.464C1850.58,777.029 1795,721.187 1795,652.466L1795,651.659C1795.44,583.041 1851.28,527.466 1920,527.466L1920.81,527.469C1989.42,527.904 2045,583.746 2045,652.466L2045,653.274C2044.56,721.892 1988.72,777.466 1920,777.466L1919.19,777.464ZM2269.19,777.464C2200.58,777.029 2145,721.187 2145,652.466L2145,651.659C2145.44,583.041 2201.28,527.466 2270,527.466L2270.81,527.469C2339.43,527.904 2395,583.746 2395,652.466L2395,653.274C2394.56,721.892 2338.72,777.466 2270,777.466L2269.19,777.464ZM1520,852.466L1520,802.466C1520,802.466 1520,799.839 1519.96,796.015C1519.96,779.695 1511.99,764.404 1498.61,755.06C1483.62,744.607 1471.03,730.956 1461.83,715.104L1461.08,713.796C1460.71,713.146 1460.35,712.492 1459.99,711.833L1459.98,711.81C1459.62,711.154 1459.27,710.496 1458.93,709.834L1458.23,708.465L1457.9,707.803L1457.23,706.422L1456.59,705.067L1456.27,704.368L1455.64,702.985L1455.2,701.965L1454.74,700.89L1454.16,699.498L1453.76,698.502L1453.32,697.365L1452.92,696.311L1452.52,695.221L1452.01,693.794L1451.65,692.764L1451.26,691.614L1450.91,690.523L1450.48,689.17L1450.12,687.963L1449.81,686.9L1449.49,685.739L1449.09,684.271L1448.82,683.231L1448.52,682.014L1448.26,680.915L1447.94,679.518L1447.67,678.25L1447.45,677.176L1447.21,675.954L1446.93,674.448L1446.75,673.397L1446.54,672.123L1446.37,671.015L1446.19,669.792L1445.99,668.258L1445.86,667.174L1445.71,665.899L1445.6,664.755L1445.46,663.297L1445.36,661.974L1445.28,660.857L1445.2,659.584L1445.12,658.018L1445.08,656.926L1445.04,655.604L1445.02,654.453L1445,653.186C1445,652.95 1445,652.708 1445,652.466L1445,651.659L1445.01,650.813L1445.02,649.994L1445.04,649.183L1445.07,648.375L1445.1,647.569L1445.13,646.765L1445.17,645.964L1445.21,645.163L1445.26,644.364L1445.31,643.567L1445.37,642.771L1445.43,641.977L1445.5,641.184L1445.58,640.393L1445.65,639.603L1445.74,638.815L1445.83,638.028L1445.92,637.242L1446.02,636.459L1446.12,635.676L1446.23,634.895L1446.34,634.116L1446.46,633.339L1446.58,632.563L1446.71,631.788L1446.84,631.015L1446.97,630.244L1447.11,629.475L1447.26,628.707L1447.41,627.941L1447.57,627.176L1447.89,625.652L1448.23,624.135L1448.59,622.626L1448.97,621.123L1449.37,619.628L1449.78,618.14L1450.21,616.66L1450.66,615.187L1451.13,613.722L1451.62,612.265L1452.12,610.817L1452.64,609.376L1453.17,607.944L1453.73,606.52L1454.3,605.105L1454.89,603.698L1455.49,602.3L1456.11,600.911L1456.75,599.531L1457.4,598.16L1458.07,596.799L1458.75,595.447L1459.45,594.104L1460.17,592.771L1460.9,591.448L1461.65,590.135L1462.41,588.832L1463.19,587.539L1463.98,586.256L1464.79,584.983L1465.61,583.721L1466.45,582.47L1467.3,581.229L1468.16,580L1469.05,578.781L1469.94,577.573L1470.85,576.377L1471.77,575.192L1472.71,574.018L1473.66,572.856L1474.62,571.706L1475.77,570.373L1476.76,569.252L1477.76,568.143L1478.77,567.047L1479.8,565.963L1480.84,564.891L1481.89,563.831L1482.96,562.784L1484.04,561.75L1485.13,560.728L1486.23,559.72L1487.35,558.724L1488.47,557.742L1489.61,556.773L1490.76,555.817L1491.92,554.875L1493.1,553.946L1494.28,553.032L1495.48,552.131L1496.68,551.244L1497.9,550.371L1499.13,549.513L1500.37,548.669L1501.62,547.84L1502.87,547.025L1504.14,546.225L1505.42,545.44L1506.71,544.669L1508.02,543.914L1509.33,543.175L1510.64,542.45L1511.98,541.741L1513.31,541.048L1514.66,540.37L1516.02,539.708L1517.39,539.063L1518.76,538.433L1520.15,537.819L1521.54,537.222L1522.94,536.641L1524.35,536.077L1525.77,535.53L1527.2,534.999L1528.63,534.486L1530.07,533.989L1531.53,533.51L1532.98,533.048L1534.45,532.603L1535.92,532.176L1537.4,531.766L1538.89,531.375L1540.39,531.001L1541.89,530.645L1543.4,530.308L1544.92,529.988L1546.44,529.688L1547.97,529.405L1549.51,529.142L1551.05,528.897L1552.6,528.671L1554.15,528.464L1555.71,528.276L1557.28,528.107L1558.85,527.958L1560.42,527.828L1562.01,527.718L1562.8,527.671L1563.6,527.628L1564.39,527.59L1565.19,527.558L1565.99,527.53L1566.79,527.507L1567.59,527.489L1568.39,527.477L1569.19,527.469L1570,527.466C1570,527.466 1570.81,527.469 1570.81,527.469C1639.42,527.904 1695,583.746 1695,652.466L1695,653.337L1694.99,654.453L1694.96,655.767L1694.91,657.338L1694.86,658.404L1694.79,659.753L1694.72,660.857L1694.62,662.322L1694.5,663.7L1694.4,664.755L1694.27,666.082L1694.09,667.609L1693.96,668.619L1693.78,669.97L1693.56,671.477L1693.41,672.446L1693.18,673.817L1692.9,675.359L1692.76,676.139L1692.46,677.621L1692.26,678.583L1691.97,679.919L1691.63,681.391L1691.44,682.199L1691.07,683.654L1690.67,685.186L1690.47,685.908L1690.06,687.343L1689.79,688.264L1689.39,689.569L1688.93,691.027L1688.68,691.775L1688.21,693.181L1687.89,694.1L1687.43,695.358L1686.92,696.743L1686.62,697.511L1686.08,698.888L1685.71,699.807L1685.21,701.011L1684.63,702.366L1684.3,703.109L1683.69,704.457L1683.27,705.376L1682.72,706.523L1682.08,707.846L1681.72,708.56L1681.05,709.878L1680.56,710.8L1679.98,711.883L1679.27,713.175L1678.89,713.857L1678.15,715.146L1677.61,716.071L1677,717.086L1676.23,718.346L1675.82,718.991L1675.02,720.252L1674.21,721.484L1673.78,722.123L1672.94,723.352C1672.52,723.962 1672.1,724.569 1671.66,725.172L1671.65,725.188C1663.34,736.781 1653.1,746.896 1641.39,755.06C1628.02,764.404 1620.04,779.695 1620.04,796.015C1620,799.839 1620,802.466 1620,802.466L1620,852.466C1620,852.466 1620,855.079 1620.02,858.885C1620.02,875.24 1628.02,890.561 1641.44,899.906C1653.55,908.364 1664.1,918.912 1672.55,931.036C1681.89,944.463 1697.22,952.466 1713.58,952.466L1770,952.466C1770,952.466 1772.63,952.466 1776.45,952.423C1792.77,952.423 1808.06,944.452 1817.41,931.073C1840,898.679 1877.54,877.466 1920,877.466L1920.81,877.469C1989.42,877.904 2045,933.746 2045,1002.47L2045,1002.96C2044.83,1045.22 2023.66,1082.55 1991.39,1105.06C1978.02,1114.4 1970.04,1129.69 1970.04,1146.02C1970,1149.84 1970,1152.47 1970,1152.47L1970,1202.47C1970,1202.47 1970,1205.08 1970.02,1208.88C1970.02,1225.24 1978.02,1240.56 1991.44,1249.91C2003.55,1258.36 2014.1,1268.91 2022.55,1281.04C2031.89,1294.46 2047.22,1302.47 2063.58,1302.47L2120,1302.47L2120.47,1302.47C2121.39,1302.46 2123.58,1302.46 2126.45,1302.42C2142.77,1302.42 2158.06,1294.45 2167.41,1281.07C2175.57,1269.37 2185.68,1259.12 2197.28,1250.81L2197.3,1250.8C2197.9,1250.37 2198.5,1249.94 2199.12,1249.52L2200.34,1248.68L2200.98,1248.26L2202.22,1247.45L2203.48,1246.64L2204.12,1246.24L2205.38,1245.47L2206.39,1244.86L2207.32,1244.32L2208.61,1243.58L2209.29,1243.19L2210.58,1242.48L2211.67,1241.9L2212.59,1241.42L2213.91,1240.75L2214.62,1240.39L2215.94,1239.75L2217.09,1239.2L2218.01,1238.77L2219.36,1238.17L2220.1,1237.84L2221.45,1237.26L2222.66,1236.76L2223.58,1236.38L2224.95,1235.84L2225.72,1235.55L2227.11,1235.03L2228.37,1234.58L2229.28,1234.26L2230.69,1233.78L2231.44,1233.54L2232.9,1233.07L2234.2,1232.68L2235.12,1232.4L2236.56,1232L2237.28,1231.8L2238.81,1231.39L2240.27,1231.03L2241.08,1230.84L2242.55,1230.5L2243.88,1230.2L2244.85,1230L2246.33,1229.71L2247.11,1229.56L2248.65,1229.29L2250.02,1229.06L2250.99,1228.91L2252.5,1228.68L2253.85,1228.5L2254.86,1228.38L2256.39,1228.2L2257.71,1228.06L2258.77,1227.97L2260.14,1227.85L2261.61,1227.74L2262.71,1227.68L2264.06,1227.61L2265.13,1227.56L2266.7,1227.51L2268.01,1227.48L2269.13,1227.47L2270,1227.47C2338.72,1227.47 2394.56,1283.04 2395,1351.66C2395,1351.66 2395,1352.47 2395,1352.47L2395,1353.27L2394.99,1354.08L2394.98,1354.88L2394.96,1355.68L2394.94,1356.48L2394.91,1357.28L2394.88,1358.07L2394.84,1358.87L2394.8,1359.66L2394.75,1360.46L2394.64,1362.04L2394.51,1363.62L2394.36,1365.19L2394.19,1366.76L2394,1368.32L2393.8,1369.87L2393.57,1371.42L2393.33,1372.96L2393.06,1374.5L2392.78,1376.03L2392.48,1377.55L2392.16,1379.07L2391.82,1380.58L2391.47,1382.08L2391.09,1383.57L2390.7,1385.06L2390.29,1386.54L2389.86,1388.02L2389.42,1389.48L2388.96,1390.94L2388.48,1392.39L2387.98,1393.84L2387.47,1395.27L2386.94,1396.7L2386.39,1398.12L2385.83,1399.53L2385.24,1400.93L2384.65,1402.32L2384.03,1403.7L2383.4,1405.08L2382.76,1406.45L2382.1,1407.81L2381.42,1409.15L2380.72,1410.49L2380.02,1411.82L2379.29,1413.14L2378.55,1414.45L2377.8,1415.75L2377.03,1417.04L2376.24,1418.32L2375.44,1419.59L2374.63,1420.85L2373.8,1422.1L2372.95,1423.34L2372.1,1424.57L2371.22,1425.79L2370.34,1426.99L2369.43,1428.19L2368.52,1429.37L2367.59,1430.54L2366.65,1431.71L2365.69,1432.86L2364.72,1433.99L2363.74,1435.12L2362.75,1436.24L2361.74,1437.34L2360.72,1438.43L2359.68,1439.51L2358.64,1440.57L2357.58,1441.63L2356.5,1442.67L2355.42,1443.69L2354.32,1444.71L2353.21,1445.71L2352.09,1446.7L2350.76,1447.85L2349.61,1448.81L2348.45,1449.76L2347.28,1450.7L2346.09,1451.62L2344.89,1452.53L2343.69,1453.42L2342.47,1454.3L2341.24,1455.17L2340,1456.02L2338.74,1456.86L2337.48,1457.68L2336.21,1458.49L2334.93,1459.28L2333.64,1460.06L2332.33,1460.82L2331.02,1461.57L2329.7,1462.3L2328.36,1463.01L2327.02,1463.71L2325.67,1464.4L2324.31,1465.07L2322.93,1465.72L2321.55,1466.36L2320.17,1466.98L2318.77,1467.58L2317.36,1468.17L2315.95,1468.74L2314.52,1469.29L2313.09,1469.83L2311.65,1470.35L2310.2,1470.85L2308.74,1471.34L2307.28,1471.8L2305.81,1472.25L2304.33,1472.69L2302.84,1473.1L2301.34,1473.5L2299.84,1473.88L2298.33,1474.24L2296.81,1474.58L2295.29,1474.9L2294.53,1475.06L2293.76,1475.21L2292.99,1475.35L2292.22,1475.49L2291.45,1475.63L2290.68,1475.76L2289.9,1475.89L2289.13,1476.01L2288.35,1476.13L2287.57,1476.24L2286.79,1476.35L2286.01,1476.45L2285.22,1476.55L2284.44,1476.64L2283.65,1476.73L2282.86,1476.81L2282.07,1476.89L2281.28,1476.96L2280.49,1477.03L2279.7,1477.1L2278.9,1477.15L2278.1,1477.21L2277.3,1477.26L2276.5,1477.3L2275.7,1477.34L2274.9,1477.37L2274.09,1477.4L2273.28,1477.42L2272.47,1477.44L2271.65,1477.46L2270.81,1477.46L2270,1477.47C2269.76,1477.47 2269.52,1477.47 2269.28,1477.46L2268.01,1477.45L2266.86,1477.43L2265.54,1477.39L2264.45,1477.35L2262.88,1477.27L2261.61,1477.19L2260.49,1477.11L2259.17,1477L2257.71,1476.87L2256.57,1476.75L2255.29,1476.61L2254.21,1476.48L2252.68,1476.27L2251.45,1476.1L2250.34,1475.93L2249.07,1475.72L2248.02,1475.54L2246.51,1475.26L2245.29,1475.02L2244.22,1474.8L2242.95,1474.53L2241.55,1474.21L2240.45,1473.95L2239.24,1473.65L2238.2,1473.38L2236.73,1472.98L2235.57,1472.66L2234.5,1472.35L2233.3,1471.98L2231.94,1471.56L2230.85,1471.2L2229.7,1470.82L2228.67,1470.46L2227.24,1469.95L2226.16,1469.55L2225.1,1469.15L2223.97,1468.7L2222.97,1468.3L2221.58,1467.73L2220.5,1467.27L2219.48,1466.82L2218.1,1466.2L2217.4,1465.88L2216.04,1465.24L2214.66,1464.56L2214,1464.23L2212.63,1463.54C2211.97,1463.19 2211.31,1462.84 2210.66,1462.49L2210.63,1462.48C2209.97,1462.12 2209.32,1461.76 2208.67,1461.39L2207.36,1460.64C2191.51,1451.44 2177.86,1438.85 2167.41,1423.86C2158.06,1410.48 2142.77,1402.51 2126.45,1402.51C2122.63,1402.47 2120,1402.47 2120,1402.47L2070,1402.47C2070,1402.47 2067.37,1402.47 2063.55,1402.51C2047.23,1402.51 2031.94,1410.48 2022.59,1423.86C2000,1456.25 1962.46,1477.47 1920,1477.47L1919.5,1477.47C1877.25,1477.3 1839.91,1456.13 1817.41,1423.86C1808.06,1410.48 1792.77,1402.51 1776.45,1402.51C1772.63,1402.47 1770,1402.47 1770,1402.47L1720,1402.47C1720,1402.47 1717.37,1402.47 1713.55,1402.51C1697.23,1402.51 1681.94,1410.48 1672.59,1423.86C1650,1456.25 1612.46,1477.47 1570,1477.47L1569.19,1477.46C1500.58,1477.03 1445,1421.19 1445,1352.47L1445,1351.97C1445.17,1309.72 1466.34,1272.38 1498.61,1249.87C1511.99,1240.53 1519.96,1225.24 1519.96,1208.92C1520,1205.09 1520,1202.47 1520,1202.47L1520,1152.47C1520,1152.47 1520,1149.84 1519.96,1146.02C1519.96,1129.69 1511.99,1114.4 1498.61,1105.06C1466.21,1082.46 1445,1044.92 1445,1002.47L1445,1001.97C1445.17,959.717 1466.34,922.381 1498.61,899.873C1511.99,890.528 1519.96,875.238 1519.96,858.918C1520,855.094 1520,852.466 1520,852.466Z" style="stroke:black;stroke-width:5px;"/>
        </g>
    </g>
</svg>
